<svg xmlns="http://www.w3.org/2000/svg" viewBox="0 0 1440 320"><path fill="#E0E9FE" fill-opacity="1" d="M0,160L34.3,149.3C68.6,139,137,117,206,138.7C274.3,160,343,224,411,229.3C480,235,549,181,617,154.7C685.7,128,754,128,823,112C891.4,96,960,64,1029,96C1097.1,128,1166,224,1234,266.7C1302.9,309,1371,299,1406,293.3L1440,288L1440,0L1405.7,0C1371.4,0,1303,0,1234,0C1165.7,0,1097,0,1029,0C960,0,891,0,823,0C754.3,0,686,0,617,0C548.6,0,480,0,411,0C342.9,0,274,0,206,0C137.1,0,69,0,34,0L0,0Z"></path></svg>
